<svg xmlns="http://www.w3.org/2000/svg" xmlns:xlink="http://www.w3.org/1999/xlink" viewBox="0 0 2886.75 2800"><defs><style>.cls-1{fill:none;}.cls-2{opacity:0.3;fill:url(#linear-gradient);}.cls-3{fill:url(#linear-gradient-2);}.cls-4{fill:url(#linear-gradient-3);}.cls-5{fill:url(#linear-gradient-4);}.cls-12,.cls-13,.cls-14,.cls-25,.cls-6,.cls-8{fill:#fff;}.cls-6{opacity:0.65;}.cls-7{fill:url(#linear-gradient-6);}.cls-9{fill:url(#linear-gradient-7);}.cls-10,.cls-12{opacity:0.6;}.cls-11{fill:url(#linear-gradient-8);}.cls-13{opacity:0.61;}.cls-14{opacity:0.73;}.cls-15{fill:url(#linear-gradient-9);}.cls-16{fill:url(#linear-gradient-10);}.cls-17{fill:url(#linear-gradient-11);}.cls-18{clip-path:url(#clip-path);}.cls-19{fill:url(#linear-gradient-12);}.cls-20{fill:url(#linear-gradient-13);}.cls-21{fill:url(#linear-gradient-14);}.cls-22{fill:url(#linear-gradient-15);}.cls-23{fill:url(#linear-gradient-16);}.cls-24{fill:url(#linear-gradient-17);}.cls-25{opacity:0.5;}.cls-26{fill:url(#linear-gradient-18);}.cls-27{fill:url(#linear-gradient-19);}.cls-28{fill:url(#linear-gradient-20);}.cls-29{fill:url(#linear-gradient-21);}.cls-30{fill:url(#linear-gradient-22);}.cls-31{fill:url(#linear-gradient-23);}.cls-32{fill:url(#linear-gradient-24);}.cls-33{fill:url(#linear-gradient-25);}.cls-34{fill:url(#linear-gradient-26);}.cls-35{fill:url(#linear-gradient-27);}.cls-36{fill:url(#linear-gradient-28);}.cls-37{fill:url(#linear-gradient-29);}.cls-38{fill:url(#linear-gradient-30);}.cls-39{fill:url(#linear-gradient-31);}.cls-40{fill:url(#linear-gradient-32);}.cls-41{opacity:0.14;fill:url(#linear-gradient-33);}.cls-42{fill:url(#linear-gradient-34);}.cls-43{fill:url(#linear-gradient-35);}.cls-44{fill:url(#linear-gradient-36);}.cls-45{fill:url(#linear-gradient-37);}.cls-46{fill:url(#linear-gradient-38);}.cls-47{fill:url(#linear-gradient-39);}</style><linearGradient id="linear-gradient" x1="3071.84" y1="2883.96" x2="971.14" y2="1041.81" gradientUnits="userSpaceOnUse"><stop offset="0" stop-color="#b37cff"/><stop offset="1" stop-color="#f895e7"/></linearGradient><linearGradient id="linear-gradient-2" x1="1438.91" y1="2917.72" x2="1406.46" y2="2275.31" gradientUnits="userSpaceOnUse"><stop offset="0" stop-color="#2b3582"/><stop offset="1" stop-color="#150e42"/></linearGradient><linearGradient id="linear-gradient-3" x1="5.66" y1="1652.85" x2="2725.05" y2="1652.85" xlink:href="#linear-gradient-2"/><linearGradient id="linear-gradient-4" x1="1518.93" y1="552.93" x2="1121.64" y2="3074.82" gradientUnits="userSpaceOnUse"><stop offset="0" stop-color="#fdf53f"/><stop offset="1" stop-color="#d93c65"/></linearGradient><linearGradient id="linear-gradient-6" x1="1440.93" y1="2675.31" x2="1142.43" y2="3330.7" xlink:href="#linear-gradient-2"/><linearGradient id="linear-gradient-7" x1="-1707.49" y1="-295.11" x2="-3676.92" y2="2659.02" gradientTransform="matrix(-1, 0, 0, 1, -583.83, 0)" gradientUnits="userSpaceOnUse"><stop offset="0" stop-color="#53d8ff"/><stop offset="1" stop-color="#3840f7"/></linearGradient><linearGradient id="linear-gradient-8" x1="954.8" y1="162.65" x2="-54.11" y2="2790.26" gradientTransform="matrix(1, 0, 0, 1, 0, 0)" xlink:href="#linear-gradient-7"/><linearGradient id="linear-gradient-9" x1="539.25" y1="1043.24" x2="1210.25" y2="1329.81" gradientTransform="matrix(1, 0, 0, 1, 0, 0)" xlink:href="#linear-gradient-7"/><linearGradient id="linear-gradient-10" x1="786.81" y1="974.36" x2="316.47" y2="1483.57" gradientTransform="matrix(1, 0, 0, 1, 0, 0)" xlink:href="#linear-gradient-7"/><linearGradient id="linear-gradient-11" x1="844.07" y1="1074.26" x2="1074.73" y2="843.61" gradientTransform="matrix(1, 0, 0, 1, 0, 0)" xlink:href="#linear-gradient-7"/><clipPath id="clip-path"><path class="cls-1" d="M81.34,1002.89v1145.9a106,106,0,0,0,104.42,106l2338.49,28.89A103.18,103.18,0,0,0,2629,2180.9l3.91-1135.66a75.46,75.46,0,0,0-73.62-75.71L165.08,921.16A81.75,81.75,0,0,0,81.34,1002.89Z"/></clipPath><linearGradient id="linear-gradient-12" x1="946.2" y1="1351.81" x2="-62.71" y2="3979.42" gradientTransform="matrix(1, 0, 0, 1, 0, 0)" xlink:href="#linear-gradient-7"/><linearGradient id="linear-gradient-13" x1="-1422.85" y1="682.62" x2="-3441.45" y2="3710.52" xlink:href="#linear-gradient-7"/><linearGradient id="linear-gradient-14" x1="2492.42" y1="894.65" x2="1228.64" y2="2410.06" gradientTransform="matrix(1, 0, 0, 1, 0, 0)" xlink:href="#linear-gradient-7"/><linearGradient id="linear-gradient-15" x1="1643.25" y1="1206.81" x2="1311.25" y2="1696.08" xlink:href="#linear-gradient-4"/><linearGradient id="linear-gradient-16" x1="2478.89" y1="472.87" x2="1297.66" y2="2394.99" xlink:href="#linear-gradient-4"/><linearGradient id="linear-gradient-17" x1="2782.46" y1="659.42" x2="1601.22" y2="2581.55" xlink:href="#linear-gradient-4"/><linearGradient id="linear-gradient-18" x1="1563.44" y1="2791.86" x2="1731.81" y2="2791.86" gradientTransform="translate(-1140.73)" xlink:href="#linear-gradient-7"/><linearGradient id="linear-gradient-19" x1="1563.43" y1="2758.86" x2="1727.06" y2="2758.86" gradientTransform="translate(-1140.73)" xlink:href="#linear-gradient-2"/><linearGradient id="linear-gradient-20" x1="1578.98" y1="2712.79" x2="1626.41" y2="2712.79" gradientTransform="translate(-1140.73)" gradientUnits="userSpaceOnUse"><stop offset="0" stop-color="#f9b776"/><stop offset="1" stop-color="#f47960"/></linearGradient><linearGradient id="linear-gradient-21" x1="1227.77" y1="2788.22" x2="1292.29" y2="2788.22" gradientTransform="translate(-1140.73)" xlink:href="#linear-gradient-7"/><linearGradient id="linear-gradient-22" x1="1228.24" y1="2738.54" x2="1322.95" y2="2738.54" gradientTransform="translate(-1140.73)" xlink:href="#linear-gradient-2"/><linearGradient id="linear-gradient-23" x1="1277.47" y1="2673.25" x2="1334.15" y2="2673.25" xlink:href="#linear-gradient-20"/><linearGradient id="linear-gradient-24" x1="1146.17" y1="2839" x2="1890.76" y2="1996.58" gradientTransform="translate(-1140.73)" gradientUnits="userSpaceOnUse"><stop offset="0" stop-color="#5ab6ff"/><stop offset="1" stop-color="#2f68e3"/></linearGradient><linearGradient id="linear-gradient-25" x1="1990.27" y1="1490.03" x2="690.89" y2="2620.17" gradientTransform="translate(-1140.73)" gradientUnits="userSpaceOnUse"><stop offset="0" stop-color="#cb236d"/><stop offset="1" stop-color="#4c246d"/></linearGradient><linearGradient id="linear-gradient-26" x1="1468.47" y1="2463.34" x2="1495.63" y2="2409.02" gradientTransform="translate(-1140.73)" xlink:href="#linear-gradient-7"/><linearGradient id="linear-gradient-27" x1="1537.15" y1="1847.05" x2="1335.37" y2="2025.73" xlink:href="#linear-gradient-20"/><linearGradient id="linear-gradient-28" x1="1881.94" y1="1370.27" x2="588.42" y2="2495.31" xlink:href="#linear-gradient-25"/><linearGradient id="linear-gradient-29" x1="2085.29" y1="1604.06" x2="791.76" y2="2729.1" xlink:href="#linear-gradient-25"/><linearGradient id="linear-gradient-30" x1="1915.39" y1="1863.96" x2="2074.3" y2="1863.96" xlink:href="#linear-gradient-20"/><linearGradient id="linear-gradient-31" x1="1760.94" y1="1439.3" x2="1759.2" y2="1736.05" xlink:href="#linear-gradient-20"/><linearGradient id="linear-gradient-32" x1="1319.26" y1="1980.36" x2="2151.38" y2="1980.36" gradientTransform="translate(-1140.73)" xlink:href="#linear-gradient-2"/><linearGradient id="linear-gradient-33" x1="2105.58" y1="1611.38" x2="2869.39" y2="1611.38" gradientTransform="translate(-1140.73)" xlink:href="#linear-gradient"/><linearGradient id="linear-gradient-34" x1="2062.53" y1="1611.38" x2="2912.44" y2="1611.38" gradientTransform="translate(-1140.73)" xlink:href="#linear-gradient-2"/><linearGradient id="linear-gradient-35" x1="1496.66" y1="3181.41" x2="1350.59" y2="3374.65" gradientTransform="translate(-1219.05 -1544.41) rotate(-8.21)" xlink:href="#linear-gradient-20"/><linearGradient id="linear-gradient-36" x1="583.32" y1="1422.31" x2="1090.12" y2="1486.39" xlink:href="#linear-gradient-2"/><linearGradient id="linear-gradient-37" x1="1282.72" y1="3334.44" x2="1399.88" y2="3214.23" gradientTransform="translate(-1219.05 -1544.41) rotate(-8.21)" xlink:href="#linear-gradient-20"/><linearGradient id="linear-gradient-38" x1="1616.83" y1="1937.04" x2="1415.05" y2="2115.71" xlink:href="#linear-gradient-20"/><linearGradient id="linear-gradient-39" x1="2057.42" y1="1845.29" x2="2114.32" y2="1845.29" xlink:href="#linear-gradient-20"/></defs><title>Fichier 1</title><g id="Calque_2" data-name="Calque 2"><g id="Illustration"><path class="cls-2" d="M2539.43,2378.16c-75.14,74.67-142.37,118.56-193.84,151.69-502,323.16-1075.91,230-1253.34,198.19-286.26-51.37-527.9-87.6-735.51-268.43-471.76-410.9-448.81-1268.06-88.33-1799,42.74-63,402.68-577.31,977.79-649.79C1260.27,9,1270.77,8,1280,7.07c89-9.08,640.29-57,1089.84,306.08a1310.46,1310.46,0,0,1,263.95,288.71C2984.89,1124.68,2986,1934.4,2539.43,2378.16Z"/><polygon class="cls-3" points="1167.77 2188.42 1113.89 2671.71 1739.08 2671.71 1657.65 2188.42 1167.77 2188.42"/><path class="cls-4" d="M5.66,1008.76V2214.88A183,183,0,0,0,183.91,2397.8c440.54,11.36,1981.31,38.9,2400.67,32.72a134.63,134.63,0,0,0,132.55-130.79c8.08-280.2,21.22-954-27.38-1266.8a138.55,138.55,0,0,0-132.47-117.26c-369.12-11.81-2002.44-49.31-2421.61-39.89A133,133,0,0,0,5.66,1008.76Z"/><path class="cls-5" d="M81.34,1002.89v1145.9a106,106,0,0,0,104.42,106l2338.49,28.89A103.18,103.18,0,0,0,2629,2180.9l3.91-1135.66a75.46,75.46,0,0,0-73.62-75.71L165.08,921.16A81.75,81.75,0,0,0,81.34,1002.89Z"/><path class="cls-6" d="M2646.57,2330.45h-.05L81.29,2286.74a3.05,3.05,0,0,1,.1-6.1l2565.23,43.71a3.05,3.05,0,0,1,0,6.1Z"/><path class="cls-5" d="M81.34,1002.89v1145.9a106,106,0,0,0,104.42,106l2338.49,28.89A103.18,103.18,0,0,0,2629,2180.9l3.91-1135.66a75.46,75.46,0,0,0-73.62-75.71L165.08,921.16A81.75,81.75,0,0,0,81.34,1002.89Z"/><path class="cls-6" d="M1389.26,2383.83a29.74,29.74,0,1,1,29.74-29.74A29.77,29.77,0,0,1,1389.26,2383.83Zm0-53.38a23.64,23.64,0,1,0,23.64,23.64A23.67,23.67,0,0,0,1389.26,2330.45Z"/><path class="cls-7" d="M1873.75,2770.59h-915c-24.86,0-43.52-17.7-38.72-36.71l11.74-46.43c3.53-14,18.9-24.22,37.14-24.79L1851,2635.14c19.06-.6,35.94,9.52,40.1,24l21.16,74C1917.76,2752.35,1899,2770.59,1873.75,2770.59Z"/><path class="cls-8" d="M1451.3,2675.31a3.05,3.05,0,0,1,0-6.1l37.8-.55a3.05,3.05,0,0,1,.09,6.1l-37.8.55Z"/><path class="cls-8" d="M953.89,2745.06a2.77,2.77,0,0,1-.49,0,3.06,3.06,0,0,1-2.53-3.49l5.4-33.78a37.74,37.74,0,0,1,36.78-31.84l400.92-5.86a3.11,3.11,0,0,1,3.09,3,3,3,0,0,1-3,3.1L993.14,2682a31.67,31.67,0,0,0-30.85,26.7l-5.39,33.78A3.06,3.06,0,0,1,953.89,2745.06Z"/><path class="cls-9" d="M2451.54,495,1216.94,489c-14.88-.13-27,16.33-26.85,36.57l2.73,488.47c.12,20.37,12.52,36.62,27.47,36l1227.57-26.29c14.28-.58,25.69-16.37,25.87-35.81l4.3-456.24C2478.22,511.61,2466.34,495.11,2451.54,495Z"/><path class="cls-8" d="M1219.51,1018.76c-2.28,0-4.06-2.16-4.07-4.92l-2.74-488.46a5.57,5.57,0,0,1,1-3.35,3.68,3.68,0,0,1,3-1.64l1234.62,5.94a3.64,3.64,0,0,1,3,1.66,5.51,5.51,0,0,1,1,3.34l-4.3,456.24c0,2.7-1.71,4.8-3.92,4.89h0Zm-2.74-495.21c-.08,0-.24,0-.49.35a2.38,2.38,0,0,0-.41,1.46l2.73,488.46c0,1.08.58,1.77.88,1.77L2447.1,989.3c.33,0,.84-.73.85-1.76l4.3-456.24a2.36,2.36,0,0,0-.41-1.46c-.25-.35-.41-.35-.47-.35Z"/><g class="cls-10"><rect class="cls-8" x="1267" y="747.39" width="60.08" height="229.6"/><rect class="cls-8" x="1367.39" y="826.3" width="60.08" height="150.69"/><rect class="cls-8" x="1467.78" y="631.28" width="60.08" height="345.71"/><rect class="cls-8" x="1568.17" y="893.93" width="60.08" height="83.05"/><rect class="cls-8" x="1668.56" y="677.5" width="60.08" height="299.49"/><rect class="cls-8" x="1768.96" y="729.35" width="60.08" height="247.63"/><rect class="cls-8" x="1869.35" y="785.72" width="60.08" height="191.27"/><rect class="cls-8" x="1969.74" y="561.39" width="60.08" height="415.6"/><rect class="cls-8" x="2070.13" y="605.35" width="60.08" height="371.64"/><rect class="cls-8" x="2170.52" y="671.86" width="60.08" height="305.13"/><rect class="cls-8" x="2270.91" y="901.64" width="60.08" height="75.34"/><rect class="cls-8" x="2371.31" y="755.28" width="60.08" height="221.71"/></g><path class="cls-11" d="M283.09,1589.23H950.35a38.53,38.53,0,0,0,38.52-38.53V551.31a38.53,38.53,0,0,0-38.42-38.53L277.86,511a38.52,38.52,0,0,0-38.63,38.73l5.34,1001.2A38.53,38.53,0,0,0,283.09,1589.23Z"/><path class="cls-12" d="M315.79,560.29,912.42,564a39.1,39.1,0,0,1,38.85,39.28l-4.16,897a39.09,39.09,0,0,1-38.38,38.91L329,1549.71a39.1,39.1,0,0,1-39.8-38.54L276.46,599.93A39.09,39.09,0,0,1,315.79,560.29Z"/><rect class="cls-12" x="340.05" y="598.85" width="483.09" height="27.5" rx="11.69"/><path class="cls-12" d="M391.34,662.28h0a11.69,11.69,0,0,0,11.47,11.06l402,7.33A11.7,11.7,0,0,0,816.75,669v-1a11.69,11.69,0,0,0-11.51-11.69L403.2,650A11.7,11.7,0,0,0,391.34,662.28Z"/><path class="cls-13" d="M350.31,1519.62a34,34,0,0,1-33.88-33.28l-13-733.63a33.92,33.92,0,0,1,33.21-34.47l542.82-10.57A33.88,33.88,0,0,1,914,740.9l14,737.67a33.87,33.87,0,0,1-33.47,34.52l-543.77,6.53ZM880.1,719.87h-.44L336.84,730.45a21.7,21.7,0,0,0-21.25,22h0l13.05,733.63a21.72,21.72,0,0,0,21.67,21.28h.26l543.77-6.52a21.68,21.68,0,0,0,21.41-22.09l-14-737.66a21.68,21.68,0,0,0-21.65-21.27Z"/><path class="cls-13" d="M908.74,793.69H316.53a6.11,6.11,0,0,1,0-12.21H908.74a6.11,6.11,0,0,1,0,12.21Z"/><path class="cls-14" d="M629.28,1377.62c-128.32,0-232.71-104.39-232.71-232.71S501,912.2,629.28,912.2,862,1016.59,862,1144.91,757.6,1377.62,629.28,1377.62Zm0-392.44c-88.07,0-159.73,71.66-159.73,159.73s71.66,159.73,159.73,159.73S789,1233,789,1144.91,717.36,985.18,629.28,985.18Z"/><path class="cls-15" d="M861.34,1127.5,788.57,1133q.43,5.93.44,12a159.12,159.12,0,0,1-9.48,54.24l68.64,24.78a231.57,231.57,0,0,0,13.82-79Q862,1136.13,861.34,1127.5Z"/><path class="cls-16" d="M629.28,1304.64c-88.07,0-159.73-71.65-159.73-159.73s71.66-159.73,159.73-159.73a159.5,159.5,0,0,1,38.91,4.8L686,919.2a232.39,232.39,0,0,0-56.69-7c-128.32,0-232.71,104.39-232.71,232.71S501,1377.62,629.28,1377.62c100.59,0,186.47-64.15,218.89-153.69l-68.64-24.78C757.27,1260.61,698.33,1304.64,629.28,1304.64Z"/><path class="cls-17" d="M788.57,1133l72.77-5.46A230.79,230.79,0,0,0,838.46,1043l-65.6,32A158.65,158.65,0,0,1,788.57,1133Z"/><g class="cls-18"><path class="cls-19" d="M274.49,2778.38H941.75a38.53,38.53,0,0,0,38.52-38.52v-999.4a38.52,38.52,0,0,0-38.42-38.52l-672.59-1.81a38.52,38.52,0,0,0-38.63,38.73L236,2740.06A38.51,38.51,0,0,0,274.49,2778.38Z"/><path class="cls-12" d="M307.19,1749.44l596.63,3.68a39.08,39.08,0,0,1,38.85,39.27l-4.16,897a39.09,39.09,0,0,1-38.38,38.9l-579.7,10.58a39.09,39.09,0,0,1-39.8-38.54l-12.77-911.24A39.1,39.1,0,0,1,307.19,1749.44Z"/><rect class="cls-12" x="331.45" y="1788" width="483.09" height="27.5" rx="11.69"/><path class="cls-12" d="M382.74,1851.43h0a11.68,11.68,0,0,0,11.46,11.06l402,7.33a11.69,11.69,0,0,0,11.9-11.69v-1a11.69,11.69,0,0,0-11.51-11.69l-402-6.37A11.68,11.68,0,0,0,382.74,1851.43Z"/><path class="cls-13" d="M341.7,2708.78a34,34,0,0,1-33.87-33.28l-13.05-733.63A33.94,33.94,0,0,1,328,1907.39l542.82-10.56a33.89,33.89,0,0,1,34.54,33.23l14,737.66a33.89,33.89,0,0,1-33.47,34.53l-543.77,6.52ZM871.49,1909h-.43L328.24,1919.6A21.7,21.7,0,0,0,307,1941.65h0l13,733.63A21.79,21.79,0,0,0,342,2696.57L885.73,2690A21.67,21.67,0,0,0,907.14,2668l-14-737.67A21.68,21.68,0,0,0,871.49,1909Z"/><path class="cls-13" d="M900.14,1982.84H307.93a6.11,6.11,0,0,1,0-12.21H900.14a6.11,6.11,0,0,1,0,12.21Z"/><path class="cls-20" d="M2471.06,1899l-1265.43-6.08c-15.25-.14-27.64,16.73-27.52,37.48l2.8,500.67c.12,20.87,12.83,37.53,28.16,36.9l1258.22-27c14.63-.6,26.32-16.78,26.51-36.71l4.41-467.63C2498.4,1916,2486.22,1899.09,2471.06,1899Z"/><path class="cls-8" d="M1208.27,2435.81c-2.35,0-4.16-2.22-4.18-5l-2.8-500.66a5.61,5.61,0,0,1,1-3.43,3.78,3.78,0,0,1,3.13-1.68l1265.44,6.08a3.77,3.77,0,0,1,3.1,1.71,5.65,5.65,0,0,1,1,3.42l-4.41,467.63c0,2.77-1.75,4.93-4,5h0Zm-2.82-507.57c-.08,0-.24,0-.5.35a2.53,2.53,0,0,0-.42,1.5l2.8,500.66c0,1.11.6,1.81.9,1.81l1258.28-26.95c.33,0,.86-.74.87-1.8l4.41-467.63a2.5,2.5,0,0,0-.42-1.49c-.26-.36-.43-.37-.49-.37Z"/><g class="cls-10"><rect class="cls-8" x="1653.49" y="2225.28" width="20.32" height="292.43" transform="translate(-707.84 4035.14) rotate(-90)"/><rect class="cls-8" x="1703.74" y="2241.58" width="20.32" height="191.92" transform="translate(-623.64 4051.44) rotate(-90)"/><rect class="cls-8" x="1579.55" y="2083.43" width="20.32" height="440.31" transform="translate(-713.87 3893.29) rotate(-90)"/><rect class="cls-8" x="1746.81" y="2216.74" width="20.32" height="105.78" transform="translate(-512.65 4026.6) rotate(-90)"/><rect class="cls-8" x="1608.98" y="2044.95" width="20.32" height="381.44" transform="translate(-616.53 3854.81) rotate(-90)"/><rect class="cls-8" x="1642" y="2044.02" width="20.32" height="315.4" transform="translate(-549.55 3853.88) rotate(-90)"/><rect class="cls-8" x="1677.9" y="2045.95" width="20.32" height="243.61" transform="translate(-479.7 3855.82) rotate(-90)"/><rect class="cls-8" x="1535.04" y="1869.14" width="20.32" height="529.33" transform="translate(-588.61 3679) rotate(-90)"/><rect class="cls-8" x="1563.04" y="1863.18" width="20.32" height="473.33" transform="translate(-526.65 3673.04) rotate(-90)"/><rect class="cls-8" x="1605.39" y="1871.58" width="20.32" height="388.62" transform="translate(-450.34 3681.44) rotate(-90)"/><rect class="cls-8" x="1751.72" y="1983.96" width="20.32" height="95.96" transform="translate(-270.06 3793.82) rotate(-90)"/><rect class="cls-8" x="1658.51" y="1856.79" width="20.32" height="282.38" transform="translate(-329.31 3666.66) rotate(-90)"/></g><g class="cls-10"><rect class="cls-8" x="2016.57" y="2225.28" width="20.32" height="292.43" transform="translate(-344.76 4398.22) rotate(-90)"/><rect class="cls-8" x="1966.32" y="2241.58" width="20.32" height="191.92" transform="translate(-361.06 4314.01) rotate(-90)"/><rect class="cls-8" x="2090.51" y="2083.43" width="20.32" height="440.31" transform="translate(-202.91 4404.25) rotate(-90)"/><rect class="cls-8" x="1923.24" y="2216.74" width="20.32" height="105.78" transform="translate(-336.22 4203.03) rotate(-90)"/><rect class="cls-8" x="2061.08" y="2044.95" width="20.32" height="381.44" transform="translate(-164.43 4306.91) rotate(-90)"/><rect class="cls-8" x="2028.05" y="2044.02" width="20.32" height="315.4" transform="translate(-163.5 4239.93) rotate(-90)"/><rect class="cls-8" x="1992.16" y="2045.95" width="20.32" height="243.61" transform="translate(-165.44 4170.08) rotate(-90)"/><rect class="cls-8" x="2135.02" y="1869.14" width="20.32" height="529.33" transform="translate(11.37 4278.98) rotate(-90)"/><rect class="cls-8" x="2107.02" y="1863.18" width="20.32" height="473.33" transform="translate(17.33 4217.03) rotate(-90)"/><rect class="cls-8" x="2064.67" y="1871.58" width="20.32" height="388.62" transform="translate(8.93 4140.72) rotate(-90)"/><rect class="cls-8" x="1918.34" y="1983.96" width="20.32" height="95.96" transform="translate(-103.44 3960.43) rotate(-90)"/><rect class="cls-8" x="2011.54" y="1856.79" width="20.32" height="282.38" transform="translate(23.72 4019.69) rotate(-90)"/></g></g><path class="cls-21" d="M2810.44,1131l-1583.57-7.62c-19.08-.17-34.58,20.94-34.44,46.91l3.51,626.54c.15,26.12,16,47,35.24,46.17l1574.54-33.72c18.32-.75,33-21,33.18-45.93l5.52-585.2C2844.66,1152.32,2829.42,1131.16,2810.44,1131Z"/><path class="cls-8" d="M1230.18,1802.81c-2.93,0-5.21-2.77-5.23-6.31L1221.44,1170a7.08,7.08,0,0,1,1.31-4.3,4.72,4.72,0,0,1,3.91-2.1l1583.58,7.61a4.71,4.71,0,0,1,3.88,2.14,7,7,0,0,1,1.29,4.28l-5.52,585.2c0,3.46-2.19,6.16-5,6.28h0Zm-3.53-635.17c-.1,0-.3,0-.62.44a3.07,3.07,0,0,0-.53,1.87l3.51,626.53c0,1.39.74,2.27,1.12,2.27L2804.74,1765c.42,0,1.08-.94,1.1-2.26l5.51-585.19a3,3,0,0,0-.52-1.88c-.32-.44-.53-.45-.62-.45Z"/><circle class="cls-8" cx="1507.64" cy="1401.3" r="163.95"/><circle class="cls-8" cx="1913.69" cy="1401.3" r="163.95"/><circle class="cls-8" cx="2321.16" cy="1406.67" r="163.95"/><path class="cls-22" d="M1605.05,1366.65a105.32,105.32,0,1,1-97.41-65.29c1.78,0,3.55,0,5.31.13V1274.8c-1.77-.07-3.53-.12-5.31-.12a131.9,131.9,0,1,0,121.9,81.33Z"/><path class="cls-23" d="M1969.43,1495.77a105.31,105.31,0,1,1-56.12-194.41c1.78,0,3.56,0,5.32.13V1274.8c-1.77-.07-3.54-.12-5.32-.12a132,132,0,1,0,69.35,244.3Z"/><path class="cls-24" d="M2410.45,1465.88a105.31,105.31,0,1,1-87.09-164.52c1.78,0,3.55,0,5.31.13V1274.8c-1.76-.07-3.53-.12-5.31-.12a132,132,0,1,0,108.7,206.85Z"/><path class="cls-25" d="M1642.39,1634.7H1375.22a30.37,30.37,0,1,0,0,60.73h267.17a30.37,30.37,0,1,0,0-60.73Z"/><path class="cls-25" d="M2049.86,1634.7H1782.68a30.37,30.37,0,0,0,0,60.73h267.18a30.37,30.37,0,0,0,0-60.73Z"/><path class="cls-25" d="M2187.57,1695.43h267.18a30.37,30.37,0,0,0,0-60.73H2187.57a30.37,30.37,0,0,0,0,60.73Z"/><path class="cls-26" d="M586.32,2783.71c-28.84,2.5-78.9,6.55-118.37,8.28-23.72,1.05-37.38-1.28-45.25-4.43,0,.89,0,1.73.08,2.51a8.16,8.16,0,0,0,7.75,7.71,1385.37,1385.37,0,0,0,155,.15,5.81,5.81,0,0,0,4.73-8.73A47.37,47.37,0,0,0,586.32,2783.71Z"/><path class="cls-27" d="M468,2792c39.47-1.73,89.53-5.78,118.37-8.28C558,2748.92,468,2725.47,468,2725.47H442.53c-17.49,25.2-20,49.2-19.83,62.09C430.57,2790.71,444.23,2793,468,2792Z"/><path class="cls-28" d="M438.25,2684l2.38,47.08a10.75,10.75,0,0,0,9.18,10.11,41.75,41.75,0,0,0,19.09-1.58,12.72,12.72,0,0,0,8.56-9.78l8.22-45.83Z"/><path class="cls-29" d="M108.05,2791.64c-12.51-1.75-18.17-8.24-20.54-15.19l-.05.19c-1.84,7.32,2.42,14.92,11,18.53,10.31,4.37,21.58,5.11,30.34,4.75,9.38-.39,18-4.27,22.74-10.49l.07-.09C142.14,2794,128.91,2794.55,108.05,2791.64Z"/><path class="cls-30" d="M167,2683.66h-21c-31.94-.65-52,66.71-58.55,92.79,2.37,7,8,13.44,20.54,15.19,20.86,2.91,34.09,2.36,43.51-2.3,17.25-22.71,25.81-56,29.92-75.36C186.15,2691.91,167,2683.66,167,2683.66Z"/><path class="cls-31" d="M148.75,2640l-11.64,46.3a12.56,12.56,0,0,0,6.54,14.24c6.51,3.35,15.68,6.86,24.11,5.84a10.51,10.51,0,0,0,8.56-7l17.09-48.72Z"/><path class="cls-32" d="M134.87,2653.35c14.48,12.85,61.59,14.54,61.59,14.54,169.71-407.3,239.13-465.16,239.13-465.16-24.51,153.73-3.95,494.08-3.95,494.08,28,12.36,64.1,0,64.1,0a2623.7,2623.7,0,0,1,86.66-644.22C467.71,2050,406.71,2010.76,386.79,1995,291.18,2149.15,134.87,2653.35,134.87,2653.35Z"/><path class="cls-33" d="M415.92,1526.6c-21.71,108.29-13.93,302.11-8.82,390.52,1.44,24.85-15.91,59.3-29.93,82.8a7.36,7.36,0,0,0,3,10.36c23.47,12.07,103,49.46,195.16,54.11a13.14,13.14,0,0,0,13.22-9.82c68.37-255.27,147.78-418.39,147.78-418.39C648.64,1496.19,415.92,1526.6,415.92,1526.6Z"/><path class="cls-34" d="M447.17,2193.08a5.51,5.51,0,0,1-2.83-.79,5.44,5.44,0,0,1-1.81-7.47c.91-1.5,22.86-37,67.28-58.41a5.44,5.44,0,1,1,4.73,9.79c-41.41,20-62.52,53.94-62.73,54.28A5.44,5.44,0,0,1,447.17,2193.08Z"/><path class="cls-35" d="M279.75,1837.4c7,50.44,27.57,105.47,68.79,163.92l15.67-12.78s-18.09-73.38-7.81-156.66C331,1826.92,301,1832,279.75,1837.4Z"/><path class="cls-36" d="M440.17,1660.22,415.92,1526.6s-162,123.85-136.17,310.8c21.2-5.37,51.23-10.48,76.65-5.52C363.81,1771.89,385.93,1706.76,440.17,1660.22Z"/><path class="cls-37" d="M736.31,1636.18l-62.54,134.69c10.11,81.31,53.79,116.47,100.89,130a286.06,286.06,0,0,1,21-87.71C735.48,1751,736.31,1636.18,736.31,1636.18Z"/><path class="cls-38" d="M795.66,1813.12a286.06,286.06,0,0,0-21,87.71c125.66,48.75,158.91-45.8,158.91-45.8l-23.23-4.1C857.9,1856.46,821.26,1839.55,795.66,1813.12Z"/><path class="cls-39" d="M678.69,1469.9l-30.19,111a21.59,21.59,0,0,1-28.88,14.37,437.48,437.48,0,0,1-43.51-19.88,29.09,29.09,0,0,1-10.27-41.81L628.61,1440Z"/><path class="cls-40" d="M991.16,1780.76,217.52,2062.33a59.25,59.25,0,0,0-33.66,80.19l2.35,5.16a55.07,55.07,0,0,0,73.24,27.18l751.19-347.51Z"/><ellipse class="cls-41" cx="1346.75" cy="1611.38" rx="381.9" ry="375.01"/><path class="cls-42" d="M1346.75,1194.1c-234.69,0-424.95,186.82-424.95,417.28s190.26,417.29,425,417.29,425-186.82,425-417.29S1581.45,1194.1,1346.75,1194.1Zm0,773.27c-200.22,0-362.53-159.38-362.53-356s162.31-356,362.53-356,362.53,159.39,362.53,356S1547,1967.37,1346.75,1967.37Z"/><path class="cls-8" d="M954.11,1663.08a2.85,2.85,0,0,1-2.83-2.5c-1.27-9.94-2.16-20-2.65-29.92a2.87,2.87,0,0,1,2.71-3,2.67,2.67,0,0,1,3,2.71c.48,9.77,1.35,19.68,2.6,29.49a2.86,2.86,0,0,1-2.47,3.19ZM957,1546.39a2.89,2.89,0,0,1-.5,0,2.86,2.86,0,0,1-2.31-3.31,384.32,384.32,0,0,1,22.93-78.47h0c61.26-148.61,206.35-244.64,369.61-244.64a402.63,402.63,0,0,1,214,61.16,2.86,2.86,0,0,1-3,4.84,397,397,0,0,0-211-60.29c-160.94,0-304,94.64-364.33,241.11h0A378.29,378.29,0,0,0,959.83,1544,2.86,2.86,0,0,1,957,1546.39Z"/><path class="cls-43" d="M744.74,1385.58c.28,1.91-25.18,126.65-25.18,126.65l-70.92-16,6.56-121.83S740.14,1353.67,744.74,1385.58Z"/><path class="cls-44" d="M671.15,1401.51l-8.47,63.86a9.06,9.06,0,0,0,0,2.44c.72,5,4.44,22,21.65,17.18,15.6-4.42,29.92-8.23,39.8-5.2a9,9,0,0,1,6.19,10.4c-2.32,11.33-8,36.77-16.32,58.13a9,9,0,0,1-10.9,5.3c-13.45-3.92-41.59-13-62.52-25.58a9,9,0,0,1-4.38-8.1c.68-16.12,2.56-65.12,1-78.86-1.49-12.89-17.32-20.61-24.19-23.38a8.83,8.83,0,0,1-4.92-5c-3.19-8-7.58-26.44,15.69-34a9,9,0,0,0,5.71-11.65c-3.45-9.6-4.9-24.24,13.09-32.3,18.3-8.2,32,1.55,39.34,9.48a9,9,0,0,0,11.47,1.35c2.11-1.33,4.82-1.77,8.1.28A8.87,8.87,0,0,0,714,1342.1c4.38-9,13.31-18.62,31.22-15.55,31.78,5.44,35.38,40.66,27,61.29s-42.51,12.78-59.62,2.38c-13-7.91-29.9.38-37.24,4.81A8.92,8.92,0,0,0,671.15,1401.51Z"/><path class="cls-45" d="M634.32,1464.36s13.07-36.58-.35-45.54S600.66,1414.51,605,1441C610.48,1474,634.32,1464.36,634.32,1464.36Z"/><path class="cls-46" d="M357.75,1986.32l73.13-6,31.68,29.2s-7.5,10.35-30.92,4.4-55.52-7.41-55.52-7.41-32.34,14.58-32.74-12.7Z"/><path class="cls-47" d="M924.25,1872.33c6.33,4.94,28-5.38,41.26-12.51a15.25,15.25,0,0,0,7.37-18c-3.19-10.06-8.51-23-15.06-24.69C947,1814.39,898.19,1852,924.25,1872.33Z"/><path class="cls-8" d="M232.79,2164a2.81,2.81,0,0,1-.94-.16c-30.21-10.45-37.24-28.3-37.82-41.44-.83-19.2,11.24-37,30-44.35l92.89-36.22a2.85,2.85,0,0,1,2.07,5.32l-92.9,36.22c-16.49,6.44-27.09,22-26.37,38.78.72,16.54,12.15,28.75,34,36.29a2.86,2.86,0,0,1-.94,5.56Z"/><path class="cls-8" d="M346.59,2036.22a2.85,2.85,0,0,1-1-5.51l12-4.7a2.86,2.86,0,0,1,2.07,5.33l-12,4.69A2.9,2.9,0,0,1,346.59,2036.22Z"/></g></g></svg>